<?xml version="1.0" encoding="UTF-8"?><svg id="uuid-28fade57-8e44-47e5-aa0e-11f38cbe5f9a" xmlns="http://www.w3.org/2000/svg" viewBox="0 0 333.33 333.33"><rect x="-83.33" y="-83.33" width="500" height="500" style="fill:none;"/><rect x="0" y="0" width="333.33" height="333.33" style="fill:#ed2124;"/><path d="m73.27,114.9c.53,1.02,1.24,1.85,2.12,2.49.88.64,1.91,1.11,3.1,1.41,1.19.31,2.42.46,3.68.46.86,0,1.78-.07,2.76-.22.98-.14,1.9-.42,2.76-.83.86-.41,1.58-.97,2.15-1.69.57-.72.86-1.63.86-2.73,0-1.19-.38-2.15-1.14-2.89-.76-.74-1.75-1.35-2.98-1.84-1.23-.49-2.62-.92-4.18-1.29-1.56-.37-3.13-.78-4.73-1.23-1.64-.41-3.23-.91-4.79-1.5-1.56-.59-2.95-1.36-4.18-2.3-1.23-.94-2.22-2.12-2.98-3.53-.76-1.41-1.14-3.12-1.14-5.13,0-2.25.48-4.21,1.44-5.86.96-1.66,2.22-3.04,3.78-4.14,1.56-1.11,3.32-1.92,5.28-2.46,1.97-.53,3.93-.8,5.9-.8,2.29,0,4.49.26,6.6.77,2.11.51,3.98,1.34,5.62,2.49,1.64,1.15,2.94,2.61,3.9,4.39.96,1.78,1.44,3.94,1.44,6.48h-9.33c-.08-1.31-.36-2.39-.83-3.25-.47-.86-1.1-1.54-1.87-2.03-.78-.49-1.67-.84-2.67-1.04-1-.2-2.1-.31-3.29-.31-.78,0-1.56.08-2.33.25-.78.16-1.48.45-2.12.86-.64.41-1.16.92-1.57,1.54-.41.61-.61,1.39-.61,2.33,0,.86.16,1.56.49,2.09.33.53.97,1.02,1.93,1.47.96.45,2.29.9,3.99,1.35,1.7.45,3.92,1.02,6.66,1.72.82.16,1.95.46,3.41.89,1.45.43,2.9,1.12,4.33,2.06,1.43.94,2.67,2.2,3.72,3.78,1.04,1.58,1.57,3.59,1.57,6.05,0,2.01-.39,3.87-1.17,5.59-.78,1.72-1.93,3.2-3.47,4.45-1.54,1.25-3.44,2.22-5.71,2.92s-4.9,1.04-7.89,1.04c-2.42,0-4.76-.3-7.03-.89-2.27-.59-4.28-1.52-6.02-2.79-1.74-1.27-3.12-2.89-4.15-4.85-1.02-1.96-1.52-4.3-1.47-7h9.33c0,1.47.27,2.72.8,3.75Z" style="fill:#fff;"/><path d="m113.67,118.1c1.31,1.27,3.19,1.9,5.65,1.9,1.76,0,3.27-.44,4.54-1.32,1.27-.88,2.05-1.81,2.33-2.79h7.68c-1.23,3.81-3.11,6.53-5.65,8.17-2.54,1.64-5.61,2.46-9.21,2.46-2.5,0-4.75-.4-6.75-1.2-2.01-.8-3.71-1.93-5.1-3.41-1.39-1.47-2.47-3.23-3.22-5.28-.76-2.05-1.14-4.3-1.14-6.75s.39-4.58,1.17-6.63c.78-2.05,1.88-3.82,3.32-5.31,1.43-1.49,3.14-2.67,5.13-3.53,1.99-.86,4.19-1.29,6.6-1.29,2.7,0,5.06.52,7.06,1.57,2.01,1.04,3.65,2.45,4.94,4.21,1.29,1.76,2.22,3.77,2.79,6.02.57,2.25.78,4.61.61,7.06h-22.9c.12,2.82.84,4.87,2.15,6.14Zm9.86-16.7c-1.04-1.15-2.63-1.72-4.76-1.72-1.39,0-2.55.24-3.47.71-.92.47-1.66,1.05-2.21,1.75-.55.7-.94,1.43-1.17,2.21-.23.78-.36,1.47-.4,2.09h14.18c-.41-2.21-1.14-3.89-2.18-5.04Z" style="fill:#fff;"/><path d="m146.96,81.87v43.84h-8.72v-43.84h8.72Z" style="fill:#fff;"/><path d="m161.33,81.87v15.97h.12c1.06-1.64,2.51-2.83,4.33-3.59,1.82-.76,3.72-1.14,5.68-1.14,1.6,0,3.17.33,4.73.98,1.56.66,2.96,1.66,4.21,3.01,1.25,1.35,2.26,3.08,3.04,5.19.78,2.11,1.17,4.62,1.17,7.52s-.39,5.41-1.17,7.52c-.78,2.11-1.79,3.84-3.04,5.19-1.25,1.35-2.65,2.35-4.21,3.01-1.56.65-3.13.98-4.73.98-2.33,0-4.42-.37-6.26-1.11-1.84-.74-3.23-1.99-4.18-3.75h-.12v4.05h-8.29v-43.84h8.72Zm14.12,24.13c-.29-1.23-.74-2.31-1.35-3.25-.61-.94-1.38-1.69-2.3-2.24-.92-.55-2.04-.83-3.35-.83s-2.37.28-3.32.83c-.94.55-1.72,1.3-2.33,2.24-.61.94-1.06,2.03-1.35,3.25-.29,1.23-.43,2.52-.43,3.87s.14,2.58.43,3.81c.29,1.23.74,2.31,1.35,3.25.61.94,1.39,1.69,2.33,2.24.94.55,2.05.83,3.32.83s2.43-.28,3.35-.83c.92-.55,1.69-1.3,2.3-2.24.61-.94,1.06-2.03,1.35-3.25.29-1.23.43-2.5.43-3.81s-.14-2.64-.43-3.87Z" style="fill:#fff;"/><path d="m198.48,118.1c1.31,1.27,3.19,1.9,5.65,1.9,1.76,0,3.27-.44,4.54-1.32,1.27-.88,2.05-1.81,2.33-2.79h7.68c-1.23,3.81-3.11,6.53-5.65,8.17-2.54,1.64-5.61,2.46-9.21,2.46-2.5,0-4.75-.4-6.75-1.2-2.01-.8-3.71-1.93-5.1-3.41-1.39-1.47-2.47-3.23-3.22-5.28-.76-2.05-1.14-4.3-1.14-6.75s.39-4.58,1.17-6.63c.78-2.05,1.88-3.82,3.32-5.31,1.43-1.49,3.14-2.67,5.13-3.53,1.99-.86,4.19-1.29,6.6-1.29,2.7,0,5.06.52,7.06,1.57,2.01,1.04,3.65,2.45,4.94,4.21,1.29,1.76,2.22,3.77,2.79,6.02.57,2.25.78,4.61.61,7.06h-22.9c.12,2.82.84,4.87,2.15,6.14Zm9.86-16.7c-1.04-1.15-2.63-1.72-4.76-1.72-1.39,0-2.55.24-3.47.71-.92.47-1.66,1.05-2.21,1.75-.55.7-.94,1.43-1.17,2.21-.23.78-.36,1.47-.4,2.09h14.18c-.41-2.21-1.14-3.89-2.18-5.04Z" style="fill:#fff;"/><path d="m231.21,93.96v5.9h.12c.41-.98.96-1.89,1.66-2.73.7-.84,1.49-1.56,2.4-2.15.9-.59,1.86-1.05,2.89-1.38,1.02-.33,2.09-.49,3.19-.49.57,0,1.21.1,1.9.31v8.11c-.41-.08-.9-.15-1.47-.21-.57-.06-1.13-.09-1.66-.09-1.6,0-2.95.27-4.05.8-1.11.53-2,1.26-2.67,2.18-.68.92-1.16,2-1.44,3.22-.29,1.23-.43,2.56-.43,3.99v14.31h-8.72v-31.75h8.29Z" style="fill:#fff;"/><path d="m266.82,93.96v5.83h-6.39v15.72c0,1.47.25,2.46.74,2.95.49.49,1.47.74,2.95.74.49,0,.96-.02,1.41-.06.45-.04.88-.1,1.29-.18v6.75c-.74.12-1.56.2-2.46.25-.9.04-1.78.06-2.64.06-1.35,0-2.63-.09-3.84-.28-1.21-.18-2.27-.54-3.19-1.07-.92-.53-1.65-1.29-2.18-2.27-.53-.98-.8-2.27-.8-3.87v-18.73h-5.28v-5.83h5.28v-9.52h8.72v9.52h6.39Z" style="fill:#fff;"/><path d="m85.67,140.35c2.74,0,5.08.4,7,1.2,1.92.8,3.49,1.85,4.7,3.16,1.21,1.31,2.09,2.8,2.64,4.48.55,1.68.83,3.42.83,5.22s-.28,3.49-.83,5.19c-.55,1.7-1.43,3.2-2.64,4.51-1.21,1.31-2.77,2.36-4.7,3.16-1.92.8-4.26,1.2-7,1.2h-10.13v15.72h-9.64v-43.84h19.77Zm-2.64,20.63c1.11,0,2.17-.08,3.19-.25,1.02-.16,1.92-.48,2.7-.95.78-.47,1.4-1.14,1.87-2,.47-.86.71-1.99.71-3.38s-.24-2.52-.71-3.38c-.47-.86-1.1-1.52-1.87-2-.78-.47-1.68-.79-2.7-.95-1.02-.16-2.09-.25-3.19-.25h-7.49v13.14h7.49Z" style="fill:#fff;"/><path d="m112.32,176.58c1.31,1.27,3.19,1.9,5.65,1.9,1.76,0,3.27-.44,4.54-1.32,1.27-.88,2.05-1.81,2.33-2.79h7.68c-1.23,3.81-3.11,6.53-5.65,8.17-2.54,1.64-5.61,2.46-9.21,2.46-2.5,0-4.75-.4-6.75-1.2-2.01-.8-3.71-1.93-5.1-3.41-1.39-1.47-2.47-3.23-3.22-5.28-.76-2.05-1.14-4.3-1.14-6.75s.39-4.58,1.17-6.63c.78-2.05,1.88-3.82,3.32-5.31,1.43-1.49,3.14-2.67,5.13-3.53,1.99-.86,4.19-1.29,6.6-1.29,2.7,0,5.06.52,7.06,1.57,2.01,1.04,3.65,2.45,4.94,4.21,1.29,1.76,2.22,3.77,2.79,6.02.57,2.25.78,4.61.61,7.06h-22.9c.12,2.82.84,4.87,2.15,6.14Zm9.86-16.7c-1.04-1.15-2.63-1.72-4.76-1.72-1.39,0-2.55.24-3.47.71-.92.47-1.66,1.05-2.21,1.75-.55.7-.94,1.43-1.17,2.21-.23.78-.36,1.47-.4,2.09h14.18c-.41-2.21-1.14-3.89-2.18-5.04Z" style="fill:#fff;"/><path d="m145.11,152.45v5.9h.12c.41-.98.96-1.89,1.66-2.73.7-.84,1.49-1.56,2.4-2.15.9-.59,1.86-1.05,2.89-1.38,1.02-.33,2.09-.49,3.19-.49.57,0,1.21.1,1.9.31v8.11c-.41-.08-.9-.15-1.47-.21-.57-.06-1.13-.09-1.66-.09-1.6,0-2.95.27-4.05.8-1.11.53-2,1.26-2.67,2.18-.68.92-1.16,2-1.44,3.22-.29,1.23-.43,2.56-.43,3.99v14.31h-8.72v-31.75h8.29Z" style="fill:#fff;"/><path d="m169,140.35v23.52l10.99-11.42h10.32l-11.97,11.67,13.33,20.08h-10.56l-8.72-14.18-3.38,3.25v10.93h-8.72v-43.84h8.72Z" style="fill:#fff;"/><path d="m193.5,147.53v-7.18h8.72v7.18h-8.72Zm8.72,4.91v31.75h-8.72v-31.75h8.72Z" style="fill:#fff;"/><path d="m215.79,152.45v4.42h.18c1.11-1.84,2.54-3.18,4.3-4.02,1.76-.84,3.56-1.26,5.4-1.26,2.33,0,4.25.32,5.74.95,1.49.64,2.67,1.51,3.53,2.64.86,1.13,1.46,2.5,1.81,4.11.35,1.62.52,3.41.52,5.37v19.53h-8.72v-17.93c0-2.62-.41-4.57-1.23-5.86-.82-1.29-2.27-1.93-4.36-1.93-2.37,0-4.09.71-5.16,2.12s-1.6,3.74-1.6,6.97v16.64h-8.72v-31.75h8.29Z" style="fill:#fff;"/><path d="m249.66,176.3c.39.68.89,1.23,1.5,1.66.61.43,1.32.75,2.12.95.8.21,1.63.31,2.49.31.61,0,1.26-.07,1.93-.22.68-.14,1.29-.37,1.84-.68.55-.31,1.01-.72,1.38-1.23.37-.51.55-1.16.55-1.93,0-1.31-.87-2.29-2.61-2.95-1.74-.65-4.17-1.31-7.28-1.96-1.27-.29-2.51-.62-3.72-1.01-1.21-.39-2.28-.9-3.22-1.54-.94-.63-1.7-1.43-2.27-2.39-.57-.96-.86-2.14-.86-3.53,0-2.05.4-3.72,1.2-5.04.8-1.31,1.85-2.34,3.16-3.1,1.31-.76,2.78-1.29,4.42-1.6,1.64-.31,3.32-.46,5.03-.46s3.39.16,5,.49c1.62.33,3.06.88,4.33,1.66,1.27.78,2.32,1.81,3.16,3.1.84,1.29,1.34,2.92,1.5,4.88h-8.29c-.12-1.68-.76-2.81-1.9-3.41-1.15-.59-2.5-.89-4.05-.89-.49,0-1.02.03-1.6.09-.57.06-1.1.19-1.57.4-.47.21-.87.5-1.2.89-.33.39-.49.91-.49,1.57,0,.78.29,1.41.86,1.9.57.49,1.32.89,2.24,1.2.92.31,1.97.58,3.16.83,1.19.25,2.39.51,3.62.8,1.27.29,2.51.64,3.72,1.04,1.21.41,2.28.95,3.22,1.63.94.68,1.7,1.51,2.27,2.52.57,1,.86,2.24.86,3.72,0,2.09-.42,3.84-1.26,5.25-.84,1.41-1.93,2.55-3.29,3.41-1.35.86-2.9,1.46-4.64,1.81-1.74.35-3.51.52-5.31.52s-3.64-.18-5.4-.55c-1.76-.37-3.33-.98-4.7-1.84-1.37-.86-2.5-2-3.38-3.41-.88-1.41-1.36-3.18-1.44-5.31h8.29c0,.94.19,1.75.58,2.43Z" style="fill:#fff;"/><path d="m84.81,198.83c2.82,0,5.45.45,7.89,1.35,2.44.9,4.54,2.25,6.33,4.05,1.78,1.8,3.17,4.05,4.18,6.75,1,2.7,1.5,5.88,1.5,9.52,0,3.19-.41,6.14-1.23,8.84-.82,2.7-2.06,5.04-3.72,7-1.66,1.96-3.73,3.51-6.2,4.64-2.48,1.13-5.39,1.69-8.75,1.69h-18.91v-43.84h18.91Zm-.68,35.74c1.39,0,2.74-.22,4.05-.68,1.31-.45,2.48-1.2,3.5-2.24,1.02-1.04,1.84-2.4,2.46-4.08.61-1.68.92-3.72.92-6.14,0-2.21-.21-4.21-.64-5.99-.43-1.78-1.14-3.31-2.12-4.57-.98-1.27-2.28-2.24-3.9-2.92-1.62-.68-3.61-1.01-5.99-1.01h-6.88v27.63h8.6Z" style="fill:#fff;"/><path d="m118.16,235.06c1.31,1.27,3.19,1.9,5.65,1.9,1.76,0,3.27-.44,4.54-1.32,1.27-.88,2.05-1.81,2.33-2.79h7.68c-1.23,3.81-3.11,6.53-5.65,8.17-2.54,1.64-5.61,2.46-9.21,2.46-2.5,0-4.75-.4-6.75-1.2-2.01-.8-3.71-1.93-5.1-3.41-1.39-1.47-2.47-3.23-3.22-5.28-.76-2.05-1.14-4.3-1.14-6.75s.39-4.58,1.17-6.63c.78-2.05,1.88-3.82,3.32-5.31,1.43-1.49,3.14-2.67,5.13-3.53,1.99-.86,4.19-1.29,6.6-1.29,2.7,0,5.06.52,7.06,1.57,2.01,1.04,3.65,2.45,4.94,4.21,1.29,1.76,2.22,3.77,2.79,6.02.57,2.25.78,4.61.61,7.06h-22.9c.12,2.82.84,4.87,2.15,6.14Zm9.86-16.7c-1.04-1.15-2.63-1.72-4.76-1.72-1.39,0-2.55.24-3.47.71-.92.47-1.66,1.05-2.21,1.75-.55.7-.94,1.43-1.17,2.21-.23.78-.36,1.47-.4,2.09h14.18c-.41-2.21-1.14-3.89-2.18-5.04Z" style="fill:#fff;"/><path d="m149.75,234.78c.39.68.89,1.23,1.5,1.66.61.43,1.32.75,2.12.95.8.21,1.63.31,2.49.31.61,0,1.26-.07,1.93-.22.68-.14,1.29-.37,1.84-.68.55-.31,1.01-.72,1.38-1.23.37-.51.55-1.16.55-1.93,0-1.31-.87-2.29-2.61-2.95-1.74-.65-4.17-1.31-7.28-1.96-1.27-.29-2.51-.62-3.72-1.01-1.21-.39-2.28-.9-3.22-1.54-.94-.63-1.7-1.43-2.27-2.39-.57-.96-.86-2.14-.86-3.53,0-2.05.4-3.72,1.2-5.04.8-1.31,1.85-2.34,3.16-3.1,1.31-.76,2.78-1.29,4.42-1.6,1.64-.31,3.32-.46,5.03-.46s3.39.16,5,.49c1.62.33,3.06.88,4.33,1.66,1.27.78,2.32,1.81,3.16,3.1.84,1.29,1.34,2.92,1.5,4.88h-8.29c-.12-1.68-.76-2.81-1.9-3.41-1.15-.59-2.5-.89-4.05-.89-.49,0-1.02.03-1.6.09-.57.06-1.1.19-1.57.4-.47.21-.87.5-1.2.89-.33.39-.49.91-.49,1.57,0,.78.29,1.41.86,1.9.57.49,1.32.89,2.24,1.2.92.31,1.97.58,3.16.83,1.19.25,2.39.51,3.62.8,1.27.29,2.51.64,3.72,1.04,1.21.41,2.28.95,3.22,1.63.94.68,1.7,1.51,2.27,2.52.57,1,.86,2.24.86,3.72,0,2.09-.42,3.84-1.26,5.25-.84,1.41-1.93,2.55-3.29,3.41-1.35.86-2.9,1.46-4.64,1.81-1.74.35-3.51.52-5.31.52s-3.64-.18-5.4-.55c-1.76-.37-3.33-.98-4.7-1.84-1.37-.86-2.5-2-3.38-3.41-.88-1.41-1.36-3.18-1.44-5.31h8.29c0,.94.19,1.75.58,2.43Z" style="fill:#fff;"/><path d="m173.79,206.02v-7.18h8.72v7.18h-8.72Zm8.72,4.91v31.75h-8.72v-31.75h8.72Z" style="fill:#fff;"/><path d="m217.18,245.01c-.35,1.64-1.1,3.16-2.24,4.57-1.15,1.41-2.8,2.61-4.97,3.59-2.17.98-5.08,1.47-8.72,1.47-1.56,0-3.14-.19-4.76-.58-1.62-.39-3.09-.99-4.42-1.81-1.33-.82-2.44-1.87-3.32-3.16-.88-1.29-1.38-2.84-1.5-4.64h8.66c.41,1.64,1.21,2.77,2.39,3.41,1.19.63,2.56.95,4.11.95,2.46,0,4.25-.74,5.37-2.21,1.13-1.47,1.67-3.34,1.63-5.59v-4.18h-.12c-.94,1.68-2.28,2.92-4.02,3.72-1.74.8-3.57,1.2-5.5,1.2-2.37,0-4.42-.42-6.14-1.26-1.72-.84-3.13-1.99-4.24-3.44-1.11-1.45-1.91-3.15-2.43-5.1-.51-1.94-.77-4-.77-6.17,0-2.05.3-4.02.89-5.93.59-1.9,1.46-3.58,2.61-5.04,1.15-1.45,2.57-2.61,4.27-3.47,1.7-.86,3.65-1.29,5.86-1.29,2.09,0,3.92.39,5.5,1.17,1.58.78,2.9,2.09,3.96,3.93h.12v-4.24h8.29v29.72c0,1.27-.17,2.72-.52,4.36Zm-11.94-10.56c.94-.49,1.72-1.15,2.33-1.97.61-.82,1.07-1.75,1.38-2.79s.46-2.14.46-3.29c0-1.31-.12-2.55-.37-3.72-.25-1.17-.66-2.2-1.23-3.1-.57-.9-1.33-1.62-2.27-2.15-.94-.53-2.13-.8-3.56-.8-1.23,0-2.28.25-3.16.74-.88.49-1.62,1.16-2.21,2-.59.84-1.02,1.8-1.29,2.89-.27,1.09-.4,2.22-.4,3.41s.11,2.28.34,3.41c.22,1.13.61,2.14,1.17,3.04.55.9,1.28,1.64,2.18,2.21.9.57,2.03.86,3.38.86,1.23,0,2.31-.25,3.25-.74Z" style="fill:#fff;"/><path d="m231.08,210.93v4.42h.18c1.11-1.84,2.54-3.18,4.3-4.02,1.76-.84,3.56-1.26,5.4-1.26,2.33,0,4.25.32,5.74.95,1.49.64,2.67,1.51,3.53,2.64.86,1.13,1.46,2.5,1.81,4.11.35,1.62.52,3.41.52,5.37v19.53h-8.72v-17.93c0-2.62-.41-4.57-1.23-5.86-.82-1.29-2.27-1.93-4.36-1.93-2.37,0-4.09.71-5.16,2.12-1.06,1.41-1.6,3.74-1.6,6.97v16.64h-8.72v-31.75h8.29Z" style="fill:#fff;"/><path d="m266.88,233.22v9.46h-9.64v-9.46h9.64Z" style="fill:#fff;"/></svg>
