<?xml version="1.0" encoding="UTF-8"?>
<svg id="Layer_1__x28_1:1_x29_" xmlns="http://www.w3.org/2000/svg" version="1.1" viewBox="0 0 428.16 167.37">
  <!-- Generator: Adobe Illustrator 30.3.0, SVG Export Plug-In . SVG Version: 2.1.3 Build 182)  -->
  <defs>
    <style>
      .st0 {
        font-family: FMReview-Regular, 'FM Review';
        font-size: 19px;
      }

      .st0, .st1 {
        fill: #001952;
      }

      .st2 {
        fill: #edeae1;
        stroke: #808184;
        stroke-miterlimit: 10;
        stroke-width: .12px;
      }
    </style>
  </defs>
  <rect class="st2" x=".06" y=".06" width="428.03" height="167.24"/>
  <text class="st0" transform="translate(41.09 131.81)"><tspan x="0" y="0">Assistant Operations Claims Manager</tspan></text>
  <g>
    <path class="st1" d="M55.71,35.06l9.32,27h-3.89l-2.41-6.95h-11.16l-2.41,6.95h-3.6l9.36-27h4.79ZM57.62,51.84l-4.46-12.92-4.46,12.92h8.93Z"/>
    <path class="st1" d="M71.37,33.59v28.47h-3.64v-28.47h3.64Z"/>
    <path class="st1" d="M89.22,55.65h3.49v.4c0,3.13-2.41,6.41-7.49,6.41h-1.22c-5.44,0-8.93-2.92-8.93-9.86v-1.15c0-6.41,3.1-9.75,8.39-9.75h1.3c5.44,0,7.92,3.35,7.92,9.54v1.51h-13.97c.11,4.75,2.12,7.13,5.87,7.13s4.57-2.48,4.64-4.21ZM78.75,49.82h10.47c-.22-3.56-1.84-5.65-5.11-5.65s-5.15,2.09-5.36,5.65Z"/>
    <path class="st1" d="M98.22,42.05l4.68,7.06,4.86-7.06h3.67l-6.77,9.75,6.77,10.26h-4l-4.86-7.23-5.04,7.23h-3.6l6.8-9.9-6.8-10.12h4.28Z"/>
    <path class="st1" d="M125.73,59.68c-.94,1.51-2.74,2.81-5.69,2.81h-.58c-4,0-6.7-1.94-6.7-5.8,0-4.21,2.52-5.69,6.44-6.01,1.33-.11,3.1-.11,4.32-.32,1.55-.25,2.2-1.22,2.2-2.77,0-2.2-1.22-3.49-4.32-3.49-3.74,0-4.39,2.59-4.43,4.1h-3.67v-.18c0-3.24,1.55-6.33,7.38-6.33h1.69c6.12,0,6.91,3.06,6.91,6.44v13.93h-3.56v-2.38ZM120.83,59.94c2.63,0,4.9-1.44,4.9-4.18v-4.43c-.4.58-.97.94-1.73,1.19-.97.32-2.23.43-3.78.68-2.34.36-3.42,1.37-3.42,3.28,0,2.05,1.04,3.46,4.03,3.46Z"/>
    <path class="st1" d="M145.96,49.71c0-3.53-1.22-5.36-4.32-5.36-2.88,0-4.5,2.16-4.5,5.36v12.35h-3.64v-20.01h3.53v2.63c.86-1.55,2.56-3.02,5.47-3.02h.76c4.39,0,6.34,2.74,6.34,6.88v13.53h-3.64v-12.35Z"/>
    <path class="st1" d="M153.27,51.26c0-6.23,2.77-9.57,7.7-9.57h.86c2.66,0,4.61.97,5.8,2.81v-10.91h3.64v28.47h-3.64v-2.95c-1.01,2.05-2.84,3.38-5.83,3.38h-.86c-4.68,0-7.67-3.38-7.67-9.58v-1.66ZM162.09,59.68c3.35,0,5.54-2.23,5.54-7.2v-.9c0-5.08-2.2-7.2-5.54-7.2s-5.11,2.52-5.11,7.49v.32c0,4.97,1.76,7.49,5.11,7.49Z"/>
    <path class="st1" d="M179.26,42.05v3.67c.9-2.38,2.88-3.74,5.22-3.74h2.27v3.38h-.72c-4.86,0-6.66,1.19-6.66,6.12v10.58h-3.64v-20.01h3.53Z"/>
    <path class="st1" d="M201.68,59.68c-.94,1.51-2.74,2.81-5.69,2.81h-.58c-4,0-6.7-1.94-6.7-5.8,0-4.21,2.52-5.69,6.44-6.01,1.33-.11,3.1-.11,4.32-.32,1.55-.25,2.2-1.22,2.2-2.77,0-2.2-1.22-3.49-4.32-3.49-3.74,0-4.39,2.59-4.43,4.1h-3.67v-.18c0-3.24,1.55-6.33,7.38-6.33h1.69c6.12,0,6.91,3.06,6.91,6.44v13.93h-3.56v-2.38ZM196.79,59.94c2.63,0,4.9-1.44,4.9-4.18v-4.43c-.4.58-.97.94-1.73,1.19-.97.32-2.23.43-3.78.68-2.34.36-3.42,1.37-3.42,3.28,0,2.05,1.04,3.46,4.03,3.46Z"/>
    <path class="st1" d="M42.82,86.52c0-8.03,3.31-12.89,10.22-12.89h1.98c7.16,0,9.29,4.43,9.29,9.04v.14h-3.85c-.11-2.48-1.4-6.26-6.41-6.26s-7.27,3.74-7.27,10.87,2.38,11.16,7.38,11.16,6.16-3.35,6.37-6.12h3.74v.14c.07,4.18-2.23,8.89-9.07,8.89h-2.09c-6.77,0-10.29-4.64-10.29-13.03v-1.94Z"/>
    <path class="st1" d="M79.9,98.68c-.94,1.51-2.74,2.81-5.69,2.81h-.58c-4,0-6.7-1.94-6.7-5.8,0-4.21,2.52-5.69,6.44-6.01,1.33-.11,3.1-.11,4.32-.32,1.55-.25,2.2-1.22,2.2-2.77,0-2.2-1.22-3.49-4.32-3.49-3.74,0-4.39,2.59-4.43,4.1h-3.67v-.18c0-3.24,1.55-6.33,7.38-6.33h1.69c6.12,0,6.91,3.06,6.91,6.44v13.93h-3.56v-2.38ZM75,98.94c2.63,0,4.9-1.44,4.9-4.18v-4.43c-.4.58-.97.94-1.73,1.19-.97.32-2.23.43-3.78.68-2.34.36-3.42,1.37-3.42,3.28,0,2.05,1.04,3.46,4.03,3.46Z"/>
    <path class="st1" d="M86.99,90.26c0-6.23,2.77-9.57,7.7-9.57h.86c2.66,0,4.61.97,5.8,2.81v-10.91h3.64v28.47h-3.64v-2.95c-1.01,2.05-2.84,3.38-5.83,3.38h-.86c-4.68,0-7.67-3.38-7.67-9.58v-1.66ZM95.81,98.68c3.35,0,5.54-2.23,5.54-7.2v-.9c0-5.08-2.2-7.2-5.54-7.2s-5.11,2.52-5.11,7.49v.32c0,4.97,1.76,7.49,5.11,7.49Z"/>
    <path class="st1" d="M121.41,98.68c-.94,1.51-2.74,2.81-5.69,2.81h-.58c-4,0-6.7-1.94-6.7-5.8,0-4.21,2.52-5.69,6.44-6.01,1.33-.11,3.1-.11,4.32-.32,1.55-.25,2.2-1.22,2.2-2.77,0-2.2-1.22-3.49-4.32-3.49-3.74,0-4.39,2.59-4.43,4.1h-3.67v-.18c0-3.24,1.55-6.33,7.38-6.33h1.69c6.12,0,6.91,3.06,6.91,6.44v13.93h-3.56v-2.38ZM116.51,98.94c2.63,0,4.9-1.44,4.9-4.18v-4.43c-.4.58-.97.94-1.73,1.19-.97.32-2.23.43-3.78.68-2.34.36-3.42,1.37-3.42,3.28,0,2.05,1.04,3.46,4.03,3.46Z"/>
    <path class="st1" d="M132.71,81.05v3.67c.9-2.38,2.88-3.74,5.22-3.74h2.27v3.38h-.72c-4.86,0-6.66,1.19-6.66,6.12v10.58h-3.64v-20.01h3.53Z"/>
    <path class="st1" d="M142.94,74.06h4.14v4.1h-4.14v-4.1ZM146.82,81.05v20.01h-3.64v-20.01h3.64Z"/>
    <path class="st1" d="M160.29,101.46h-1.51c-6.08,0-8.24-4.28-8.24-9.83v-1.12c0-5.54,2.16-9.83,8.24-9.83h1.51c6.08,0,8.21,4.32,8.21,9.83v1.12c0,5.51-2.12,9.83-8.21,9.83ZM159.53,98.83c3.64,0,5.29-3.02,5.29-7.78,0-5-1.66-7.74-5.29-7.74s-5.29,2.74-5.29,7.74,1.62,7.78,5.29,7.78Z"/>
  </g>
</svg>